<svg aria-hidden="true" style="position: absolute; width: 0; height: 0; overflow: hidden;" version="1.1" xmlns="http://www.w3.org/2000/svg" xmlns:xlink="http://www.w3.org/1999/xlink">
  <defs>
    <symbol id="icon-facebook" viewBox="0 0 32 32">
    <title>facebook</title>
    <path fill="#f38181" style="fill: var(--color1, #f38181)" d="M20.791 6.421l-2.485-0.004c-2.792 0-4.597 1.851-4.597 4.717v2.175h-2.499c-0.216 0-0.391 0.175-0.391 0.391v3.151c0 0.216 0.175 0.391 0.391 0.391h2.499v7.951c0 0.216 0.175 0.391 0.391 0.391h3.261c0.216 0 0.391-0.175 0.391-0.391v-7.951h2.922c0.216 0 0.391-0.175 0.391-0.391l0.001-3.151c0-0.104-0.041-0.203-0.114-0.276s-0.173-0.115-0.277-0.115h-2.923v-1.844c0-0.886 0.211-1.336 1.365-1.336l1.674-0.001c0.216 0 0.391-0.175 0.391-0.391v-2.926c0-0.216-0.175-0.39-0.39-0.391z"></path>
    </symbol>
    <symbol id="icon-instagram" viewBox="0 0 32 32">
    <title>instagram</title>
    <path fill="#f38181" style="fill: var(--color1, #f38181)" d="M9.558 7.333h12.884c1.224 0 2.225 0.906 2.225 2.225v12.885c0 1.319-1.001 2.225-2.225 2.225h-12.884c-1.224 0-2.225-0.906-2.225-2.225v-12.885c0-1.319 1.001-2.225 2.225-2.225v0zM19.96 9.259c-0.429 0-0.78 0.351-0.78 0.78v1.868c0 0.429 0.351 0.78 0.78 0.78h1.959c0.429 0 0.78-0.351 0.78-0.78v-1.868c0-0.429-0.351-0.78-0.78-0.78h-1.959zM22.708 14.664h-1.526c0.144 0.471 0.222 0.97 0.222 1.487 0 2.883-2.413 5.22-5.388 5.22s-5.388-2.337-5.388-5.22c0-0.517 0.078-1.016 0.222-1.487h-1.592v7.322c0 0.379 0.31 0.689 0.689 0.689h12.071c0.379 0 0.689-0.31 0.689-0.689v-7.322h-0zM16.016 12.589c-1.922 0-3.481 1.51-3.481 3.373s1.559 3.373 3.481 3.373c1.923 0 3.482-1.51 3.482-3.373s-1.559-3.373-3.482-3.373z"></path>
    </symbol>
    <symbol id="icon-pinterest" viewBox="0 0 32 32">
    <title>pinterest</title>
    <path fill="#f38181" style="fill: var(--color1, #f38181)" d="M22.046 7.743c-1.43-1.373-3.408-2.129-5.571-2.129-3.304 0-5.336 1.354-6.459 2.491-1.384 1.4-2.178 3.259-2.178 5.101 0 2.312 0.967 4.087 2.587 4.747 0.109 0.045 0.218 0.067 0.325 0.067 0.342 0 0.612-0.224 0.706-0.582 0.055-0.206 0.181-0.713 0.236-0.934 0.118-0.435 0.023-0.644-0.235-0.947-0.468-0.554-0.687-1.21-0.687-2.063 0-2.534 1.887-5.226 5.383-5.226 2.774 0 4.498 1.577 4.498 4.115 0 1.602-0.345 3.085-0.972 4.177-0.435 0.759-1.201 1.663-2.377 1.663-0.508 0-0.965-0.209-1.253-0.573-0.272-0.344-0.362-0.789-0.252-1.252 0.124-0.524 0.292-1.070 0.456-1.597 0.298-0.964 0.579-1.875 0.579-2.601 0-1.243-0.764-2.078-1.901-2.078-1.445 0-2.577 1.468-2.577 3.341 0 0.919 0.244 1.606 0.355 1.87-0.182 0.771-1.264 5.356-1.469 6.221-0.119 0.505-0.833 4.491 0.35 4.809 1.329 0.357 2.517-3.525 2.638-3.964 0.098-0.357 0.441-1.706 0.651-2.535 0.642 0.618 1.675 1.036 2.68 1.036 1.895 0 3.6-0.853 4.799-2.401 1.163-1.502 1.804-3.595 1.804-5.894-0-1.797-0.772-3.569-2.117-4.861z"></path>
    </symbol>
    <symbol id="icon-twitter" viewBox="0 0 32 32">
    <title>twitter</title>
    <path fill="#f38181" style="fill: var(--color1, #f38181)" d="M25.206 10.291c-0.685 0.3-1.414 0.499-2.175 0.596 0.782-0.467 1.38-1.201 1.66-2.086-0.73 0.435-1.535 0.742-2.393 0.914-0.693-0.738-1.68-1.194-2.757-1.194-2.090 0-3.772 1.696-3.772 3.775 0 0.299 0.025 0.587 0.087 0.861-3.138-0.153-5.915-1.657-7.78-3.948-0.326 0.565-0.517 1.212-0.517 1.908 0 1.307 0.673 2.466 1.677 3.137-0.606-0.011-1.201-0.188-1.705-0.465 0 0.011 0 0.026 0 0.041 0 1.834 1.308 3.358 3.024 3.709-0.307 0.084-0.642 0.124-0.99 0.124-0.242 0-0.486-0.014-0.715-0.064 0.489 1.495 1.877 2.594 3.527 2.629-1.284 1.005-2.915 1.61-4.68 1.61-0.31 0-0.606-0.014-0.903-0.052 1.672 1.078 3.654 1.694 5.79 1.694 6.946 0 10.743-5.754 10.743-10.741 0-0.167-0.006-0.328-0.014-0.488 0.749-0.532 1.379-1.196 1.892-1.96z"></path>
    </symbol>
  </defs>
</svg>
