<svg aria-hidden="true" style="position:absolute;width:0;height:0" xmlns="http://www.w3.org/2000/svg" overflow="hidden"><defs><symbol id="icon-facebook" viewBox="0 0 32 32"><path fill="var(--color1, #f38181)" d="M20.791 6.421l-2.485-.004c-2.792 0-4.597 1.851-4.597 4.717v2.175H11.21a.39.39 0 0 0-.391.391v3.151a.39.39 0 0 0 .391.391h2.499v7.951a.39.39 0 0 0 .391.391h3.261a.39.39 0 0 0 .391-.391v-7.951h2.922a.39.39 0 0 0 .391-.391l.001-3.151a.39.39 0 0 0-.391-.391h-2.923v-1.844c0-.886.211-1.336 1.365-1.336l1.674-.001a.39.39 0 0 0 .391-.391V6.811a.391.391 0 0 0-.39-.391z"/></symbol><symbol id="icon-instagram" viewBox="0 0 32 32"><path fill="var(--color1, #f38181)" d="M9.558 7.333h12.884c1.224 0 2.225.906 2.225 2.225v12.885c0 1.319-1.001 2.225-2.225 2.225H9.558c-1.224 0-2.225-.906-2.225-2.225V9.558c0-1.319 1.001-2.225 2.225-2.225zM19.96 9.259a.782.782 0 0 0-.78.78v1.868c0 .429.351.78.78.78h1.959c.429 0 .78-.351.78-.78v-1.868a.782.782 0 0 0-.78-.78H19.96zm2.748 5.405h-1.526c.144.471.222.97.222 1.487 0 2.883-2.413 5.22-5.388 5.22s-5.388-2.337-5.388-5.22c0-.517.078-1.016.222-1.487H9.258v7.322c0 .379.31.689.689.689h12.071c.379 0 .689-.31.689-.689v-7.322zm-6.692-2.075c-1.922 0-3.481 1.51-3.481 3.373s1.559 3.373 3.481 3.373c1.923 0 3.482-1.51 3.482-3.373s-1.559-3.373-3.482-3.373z"/></symbol><symbol id="icon-pinterest" viewBox="0 0 32 32"><path fill="var(--color1, #f38181)" d="M22.046 7.743c-1.43-1.373-3.408-2.129-5.571-2.129-3.304 0-5.336 1.354-6.459 2.491-1.384 1.4-2.178 3.259-2.178 5.101 0 2.312.967 4.087 2.587 4.747a.848.848 0 0 0 .325.067c.342 0 .612-.224.706-.582.055-.206.181-.713.236-.934.118-.435.023-.644-.235-.947-.468-.554-.687-1.21-.687-2.063 0-2.534 1.887-5.226 5.383-5.226 2.774 0 4.498 1.577 4.498 4.115 0 1.602-.345 3.085-.972 4.177-.435.759-1.201 1.663-2.377 1.663-.508 0-.965-.209-1.253-.573-.272-.344-.362-.789-.252-1.252.124-.524.292-1.07.456-1.597.298-.964.579-1.875.579-2.601 0-1.243-.764-2.078-1.901-2.078-1.445 0-2.577 1.468-2.577 3.341 0 .919.244 1.606.355 1.87l-1.469 6.221c-.119.505-.833 4.491.35 4.809 1.329.357 2.517-3.525 2.638-3.964.098-.357.441-1.706.651-2.535.642.618 1.675 1.036 2.68 1.036 1.895 0 3.6-.853 4.799-2.401 1.163-1.502 1.804-3.595 1.804-5.894 0-1.797-.772-3.569-2.117-4.861z"/></symbol><symbol id="icon-twitter" viewBox="0 0 32 32"><path fill="var(--color1, #f38181)" d="M25.206 10.291c-.685.3-1.414.499-2.175.596a3.75 3.75 0 0 0 1.66-2.086 7.561 7.561 0 0 1-2.393.914 3.773 3.773 0 0 0-6.529 2.581c0 .299.025.587.087.861a10.683 10.683 0 0 1-7.78-3.948 3.798 3.798 0 0 0-.517 1.908 3.78 3.78 0 0 0 1.677 3.137 3.725 3.725 0 0 1-1.705-.465v.041a3.792 3.792 0 0 0 3.024 3.709 3.766 3.766 0 0 1-.99.124 3.38 3.38 0 0 1-.715-.064c.489 1.495 1.877 2.594 3.527 2.629a7.582 7.582 0 0 1-4.68 1.61c-.31 0-.606-.014-.903-.052a10.63 10.63 0 0 0 5.79 1.694c6.946 0 10.743-5.754 10.743-10.741 0-.167-.006-.328-.014-.488a7.537 7.537 0 0 0 1.892-1.96z"/></symbol></defs></svg>